<?xml version="1.0" standalone="no"?>
<!DOCTYPE svg PUBLIC "-//W3C//DTD SVG 20010904//EN"
 "http://www.w3.org/TR/2001/REC-SVG-20010904/DTD/svg10.dtd">
<svg version="1.0" xmlns="http://www.w3.org/2000/svg"
 width="485.000000pt" height="385.000000pt" viewBox="0 0 485.000000 385.000000"
 preserveAspectRatio="xMidYMid meet">

<g transform="translate(0.000000,385.000000) scale(0.100000,-0.100000)"
fill="#000000" stroke="none">
<path d="M0 3815 l0 -35 2425 0 2425 0 0 35 0 35 -2425 0 -2425 0 0 -35z"/>
<path d="M3330 3661 c-130 -24 -271 -61 -555 -147 -264 -79 -621 -173 -800
-209 -124 -25 -168 -29 -791 -70 -44 -2 -131 -7 -194 -10 -106 -5 -116 -7
-142 -32 -46 -44 -48 -65 -18 -196 l27 -117 -27 -43 c-15 -23 -44 -65 -65 -92
-50 -66 -103 -181 -121 -263 -28 -136 -13 -311 55 -647 l39 -190 -57 -65
c-107 -123 -109 -126 -107 -169 1 -22 -1 -38 -5 -36 -7 5 -30 -44 -58 -125
-11 -30 -20 -46 -20 -35 0 11 10 52 24 90 14 42 18 62 10 51 -8 -11 -15 -22
-15 -26 0 -3 -22 -13 -48 -22 -77 -28 -111 -66 -137 -155 -17 -58 -35 -74
-173 -152 -51 -29 -106 -64 -122 -78 -29 -24 -30 -29 -30 -103 l0 -78 42 -16
c44 -17 268 -39 280 -27 4 3 8 26 10 51 l3 45 60 -2 c65 -2 64 2 -6 17 -34 7
-23 8 51 4 59 -3 105 -1 120 6 l25 10 -27 -5 c-16 -3 -28 -2 -28 3 0 4 -12 13
-27 19 l-28 10 25 10 24 10 -22 12 c-17 9 -20 17 -16 40 5 23 2 30 -12 34 -17
4 -17 5 -1 6 9 0 17 8 17 16 0 18 -26 20 -33 3 -3 -7 -2 7 1 32 5 46 24 73 30
43 2 -8 -2 -19 -9 -24 -7 -4 -10 -11 -7 -14 14 -14 29 8 26 36 -2 23 8 41 49
88 58 65 59 66 290 114 98 21 135 24 280 21 93 -2 193 -5 223 -8 205 -15 280
-20 565 -32 83 -3 177 -7 210 -9 33 -1 94 -5 135 -9 77 -6 200 -13 375 -21 55
-3 147 -8 205 -11 58 -3 121 -7 140 -8 19 0 41 -5 48 -9 6 -5 12 -4 12 1 0 10
49 4 65 -8 6 -4 34 -6 64 -5 48 1 55 4 56 23 1 12 -2 19 -7 16 -4 -3 -8 0 -8
6 0 6 -11 15 -25 22 -13 6 -22 15 -19 19 3 5 -1 9 -10 9 -8 0 -16 6 -18 12 -4
10 -100 13 -424 16 -230 1 -427 4 -436 6 -10 2 -18 -1 -18 -7 0 -8 -3 -8 -8
-2 -4 6 -61 11 -137 12 -137 1 -482 11 -650 20 -55 2 -203 5 -330 5 -205 0
-244 -3 -360 -25 -71 -14 -136 -27 -144 -29 -24 -6 -22 19 4 50 33 39 99 63
250 92 114 22 135 22 430 16 171 -3 319 -8 330 -10 11 -2 26 1 33 7 8 6 12 6
12 -2 0 -8 16 -10 53 -5 58 8 66 8 119 1 21 -3 36 -1 33 3 -3 4 29 7 71 6 42
-1 78 2 80 5 2 4 61 5 131 3 71 -2 156 -3 191 -4 46 0 61 -3 56 -12 -5 -8 -2
-9 9 -5 10 3 17 3 17 -1 0 -5 17 -8 38 -8 20 -1 183 -2 362 -3 267 -2 329 -5
348 -17 12 -8 22 -11 22 -7 0 5 28 9 63 9 51 2 217 26 467 69 19 3 76 8 125
10 140 7 229 -27 327 -125 32 -32 58 -56 58 -53 0 3 -25 40 -55 83 -101 144
-232 244 -427 327 -46 20 -84 37 -86 38 -1 1 5 18 13 38 8 20 15 58 15 84 0
74 34 222 70 303 41 93 68 137 211 345 189 274 223 347 235 505 5 70 3 101
-15 170 -31 123 -56 176 -118 252 -65 80 -96 105 -199 157 -161 83 -362 108
-564 72z m37 -77 c-3 -3 -12 -4 -19 -1 -8 3 -5 6 6 6 11 1 17 -2 13 -5z m239
-99 c98 -18 191 -58 254 -112 59 -51 49 -60 -22 -20 -36 20 -104 45 -156 57
-83 20 -110 22 -255 17 -185 -6 -270 -22 -527 -98 -91 -28 -205 -60 -255 -73
-49 -13 -148 -40 -220 -61 -206 -58 -339 -92 -495 -125 -80 -17 -161 -35 -180
-40 -19 -5 -82 -16 -140 -25 -58 -9 -127 -20 -153 -26 -26 -5 -76 -9 -110 -9
-94 0 -188 -29 -351 -108 -5 -3 -6 0 -2 6 20 33 250 138 321 147 11 2 47 10
80 19 66 17 160 31 270 41 61 6 241 40 470 90 39 8 94 24 124 35 30 10 57 18
60 15 8 -4 109 25 276 78 61 20 148 47 195 60 47 14 123 37 170 51 132 39 247
65 366 80 146 19 176 19 280 1z m-2306 -314 c-14 -5 -63 -11 -110 -14 -99 -7
-88 -1 20 12 99 11 123 12 90 2z m133 2 c-13 -2 -33 -2 -45 0 -13 2 -3 4 22 4
25 0 35 -2 23 -4z m-368 -34 c-51 -10 -92 -10 -50 1 17 4 44 8 60 8 25 0 24
-2 -10 -9z m2385 -15 c132 -30 226 -112 251 -221 16 -68 2 -122 -58 -233 -127
-233 -206 -391 -232 -460 -26 -71 -71 -268 -71 -314 0 -31 -3 -36 -24 -36 -22
0 -25 5 -28 43 l-3 42 -149 9 -150 9 -30 -36 -31 -37 -165 15 c-153 13 -340
25 -652 41 -109 5 -128 9 -133 24 -8 24 -46 30 -185 30 -115 0 -118 -1 -134
-26 -14 -21 -24 -25 -54 -22 l-37 3 -12 80 c-30 209 -26 399 11 476 23 47 197
225 286 291 182 137 825 302 1330 342 70 6 199 -4 270 -20z m-2650 -594 c0 -5
-5 -10 -11 -10 -5 0 -7 5 -4 10 3 6 8 10 11 10 2 0 4 -4 4 -10z m886 -628 c-5
-8 -66 -4 -66 4 0 2 16 4 36 4 19 0 33 -4 30 -8z m68 -4 c-7 -11 -32 -10 -39
2 -3 6 4 9 19 8 13 -1 22 -6 20 -10z m66 3 c0 -5 -11 -8 -25 -8 -14 0 -25 3
-25 8 0 5 11 9 25 9 14 0 25 -4 25 -9z m90 1 c0 -10 -68 -13 -74 -4 -2 4 14 8
35 10 21 1 39 -1 39 -6z m1063 -29 c-7 -2 -19 -2 -25 0 -7 3 -2 5 12 5 14 0
19 -2 13 -5z m144 -9 c-3 -3 -12 -4 -19 -1 -8 3 -5 6 6 6 11 1 17 -2 13 -5z
m46 -1 c-7 -2 -19 -2 -25 0 -7 3 -2 5 12 5 14 0 19 -2 13 -5z m-1401 -21 c68
-2 115 1 129 8 17 10 20 9 17 -2 -3 -7 -24 -16 -49 -19 -42 -6 -41 -6 17 -7
69 -2 113 -15 164 -48 54 -35 180 -48 471 -49 185 0 260 3 270 12 8 7 32 13
52 15 20 1 37 5 37 9 0 10 46 19 113 21 35 0 53 4 45 9 -10 7 -9 9 5 9 9 0 17
-4 17 -9 0 -5 51 -9 113 -10 123 -2 180 -11 205 -34 10 -9 54 -19 110 -25 86
-9 112 -16 101 -26 -2 -3 -38 -1 -79 4 -379 42 -545 47 -620 16 -115 -46 -131
-48 -410 -42 -146 3 -292 10 -325 16 -33 5 -93 27 -134 47 l-74 38 -196 1
c-221 1 -267 7 -277 36 -3 11 -4 21 -2 23 1 1 54 -3 116 -10 72 -9 136 -11
175 -6 l62 8 -82 2 c-86 1 -113 7 -113 23 0 6 7 7 18 2 9 -5 65 -10 124 -12z
m1198 -22 c0 -5 9 -10 19 -10 11 0 23 -5 27 -12 5 -8 0 -9 -17 -5 -13 4 -32 7
-41 7 -10 0 -18 7 -18 15 0 8 7 15 15 15 8 0 15 -4 15 -10z m255 -20 c-3 -5
-25 -9 -48 -9 -40 1 -40 2 -12 9 44 11 67 11 60 0z m-1415 -70 c-6 -4 -11 -11
-11 -16 1 -5 -9 -10 -21 -12 -16 -2 -26 5 -33 20 -10 22 -9 23 33 19 25 -2 39
-6 32 -11z m1310 -60 c0 -5 -7 -10 -16 -10 -8 0 -12 5 -9 10 3 6 10 10 16 10
5 0 9 -4 9 -10z m-863 -46 c-3 -3 -12 -4 -19 -1 -8 3 -5 6 6 6 11 1 17 -2 13
-5z m193 -3 c0 -5 -9 -7 -20 -4 -11 3 -20 7 -20 9 0 2 9 4 20 4 11 0 20 -4 20
-9z m168 -24 c17 -3 32 -1 32 4 0 14 40 11 41 -3 0 -10 2 -10 5 -1 5 12 34 6
45 -9 3 -5 30 -13 60 -17 30 -4 60 -10 66 -14 14 -9 178 -10 371 -3 89 4 125
2 102 -3 -19 -5 -120 -12 -225 -16 -173 -6 -239 -2 -335 20 -52 12 -282 27
-467 31 -185 4 -194 4 -250 -19 -44 -19 -79 -25 -143 -26 -103 -3 -103 5 0 12
42 3 104 15 140 28 61 23 79 24 288 24 141 0 222 4 222 10 0 6 4 5 8 -2 4 -6
22 -13 40 -16z m-1078 -15 c0 -5 12 -9 28 -9 60 -1 68 -3 52 -13 -8 -5 -24 -7
-35 -3 -11 3 -29 6 -39 7 -20 1 -36 26 -17 26 6 0 11 -4 11 -8z m170 -22 c0
-5 -4 -10 -10 -10 -5 0 -10 5 -10 10 0 6 5 10 10 10 6 0 10 -4 10 -10z m77 -6
c-3 -3 -12 -4 -19 -1 -8 3 -5 6 6 6 11 1 17 -2 13 -5z m20 -70 c-3 -3 -12 -4
-19 -1 -8 3 -5 6 6 6 11 1 17 -2 13 -5z m136 -1 c-24 -2 -62 -2 -85 0 -24 2
-5 4 42 4 47 0 66 -2 43 -4z m95 0 c-10 -2 -26 -2 -35 0 -10 3 -2 5 17 5 19 0
27 -2 18 -5z m260 0 c-10 -2 -28 -2 -40 0 -13 2 -5 4 17 4 22 1 32 -1 23 -4z
m-1643 -73 c-3 -5 -11 -10 -16 -10 -6 0 -7 5 -4 10 3 6 11 10 16 10 6 0 7 -4
4 -10z m-167 -295 c-1 -29 -1 -28 -7 5 -6 32 -8 29 -20 -40 -9 -53 -28 -103
-64 -173 l-51 -98 -105 7 c-58 3 -112 10 -120 14 -9 5 24 29 100 75 145 86
184 123 206 195 9 30 24 63 32 73 15 18 16 18 22 -5 4 -12 7 -36 7 -53z m-221
-324 c54 -1 67 -8 54 -30 -9 -15 -98 -24 -106 -11 -3 5 -24 11 -48 15 -23 4
-60 11 -82 17 -59 16 -20 26 63 16 37 -4 90 -7 119 -7z"/>
<path d="M550 1408 c-12 -22 -12 -22 6 -6 10 10 15 20 12 24 -4 3 -12 -5 -18
-18z"/>
<path d="M3159 1156 c-3 -3 -38 -8 -78 -10 -40 -3 -79 -10 -87 -17 -7 -6 -18
-8 -24 -4 -9 6 -13 -6 -7 -22 3 -10 47 -10 47 0 0 4 5 5 10 2 6 -4 8 -10 6
-13 -2 -4 36 -7 86 -6 92 2 107 8 108 45 0 9 -6 16 -12 16 -7 0 -20 4 -29 7
-8 4 -17 4 -20 2z"/>
<path d="M4344 1093 c9 -29 -37 -66 -125 -97 -42 -15 -86 -28 -98 -29 -11 -1
-21 -5 -21 -10 0 -5 -6 -7 -14 -4 -7 3 -18 1 -22 -3 -17 -17 -408 -84 -669
-115 -138 -16 -180 -24 -173 -30 2 -2 100 7 218 21 270 31 304 34 296 27 -8
-8 -32 -14 -63 -16 -20 -1 -35 -17 -15 -17 6 0 194 31 357 60 70 12 288 64
423 102 132 36 132 39 7 88 -44 17 -86 34 -94 37 -10 4 -12 1 -7 -14z m-484
-223 c-18 -12 -40 -13 -40 -2 0 4 12 9 28 10 21 1 23 0 12 -8z m-50 -8 c0 -4
-9 -8 -20 -9 -11 -1 -20 2 -20 8 0 5 9 9 20 9 11 0 20 -4 20 -8z"/>
<path d="M3025 859 c-130 -16 -398 -27 -745 -30 -405 -4 -942 0 -985 7 -22 4
-26 2 -15 -5 14 -8 405 -27 665 -31 55 -1 177 -3 270 -5 192 -3 535 9 700 25
61 6 146 13 190 16 100 6 127 12 120 24 -7 12 -101 11 -200 -1z"/>
<path d="M1213 833 c9 -2 25 -2 35 0 9 3 1 5 -18 5 -19 0 -27 -2 -17 -5z"/>
<path d="M696 812 c-2 -4 11 -6 30 -4 19 2 34 6 34 8 0 8 -59 4 -64 -4z"/>
<path d="M908 803 c12 -2 30 -2 40 0 9 3 -1 5 -23 4 -22 0 -30 -2 -17 -4z"/>
<path d="M1078 793 c6 -2 18 -2 25 0 6 3 1 5 -13 5 -14 0 -19 -2 -12 -5z"/>
<path d="M521 786 c2 -2 36 -6 74 -8 40 -3 61 -2 50 3 -19 7 -132 13 -124 5z"/>
<path d="M938 783 c7 -3 16 -2 19 1 4 3 -2 6 -13 5 -11 0 -14 -3 -6 -6z"/>
<path d="M1198 783 c6 -2 18 -2 25 0 6 3 1 5 -13 5 -14 0 -19 -2 -12 -5z"/>
<path d="M1253 783 c9 -2 25 -2 35 0 9 3 1 5 -18 5 -19 0 -27 -2 -17 -5z"/>
<path d="M698 773 c12 -2 30 -2 40 0 9 3 -1 5 -23 4 -22 0 -30 -2 -17 -4z"/>
<path d="M2768 773 c7 -3 16 -2 19 1 4 3 -2 6 -13 5 -11 0 -14 -3 -6 -6z"/>
<path d="M2823 773 c15 -2 39 -2 55 0 15 2 2 4 -28 4 -30 0 -43 -2 -27 -4z"/>
<path d="M1683 763 c15 -2 39 -2 55 0 15 2 2 4 -28 4 -30 0 -43 -2 -27 -4z"/>
<path d="M1788 763 c6 -2 18 -2 25 0 6 3 1 5 -13 5 -14 0 -19 -2 -12 -5z"/>
<path d="M2558 763 c7 -3 16 -2 19 1 4 3 -2 6 -13 5 -11 0 -14 -3 -6 -6z"/>
<path d="M2648 763 c18 -2 45 -2 60 0 15 2 0 4 -33 4 -33 0 -45 -2 -27 -4z"/>
<path d="M1068 753 c7 -3 16 -2 19 1 4 3 -2 6 -13 5 -11 0 -14 -3 -6 -6z"/>
<path d="M2013 753 c9 -2 23 -2 30 0 6 3 -1 5 -18 5 -16 0 -22 -2 -12 -5z"/>
<path d="M2198 753 c12 -2 32 -2 45 0 12 2 2 4 -23 4 -25 0 -35 -2 -22 -4z"/>
<path d="M2328 753 c7 -3 16 -2 19 1 4 3 -2 6 -13 5 -11 0 -14 -3 -6 -6z"/>
<path d="M3170 749 c-47 -10 -427 -29 -568 -29 -62 0 -111 -3 -108 -8 2 -4 94
-8 203 -9 225 -2 387 -11 421 -24 12 -5 22 -5 22 -1 0 4 33 7 72 7 40 0 75 5
76 10 2 6 8 18 13 27 6 11 5 19 -3 24 -16 10 -85 12 -128 3z"/>
<path d="M2178 733 c12 -2 30 -2 40 0 9 3 -1 5 -23 4 -22 0 -30 -2 -17 -4z"/>
<path d="M2108 713 c17 -2 47 -2 65 0 17 2 3 4 -33 4 -36 0 -50 -2 -32 -4z"/>
<path d="M2275 710 c3 -5 8 -10 11 -10 2 0 4 5 4 10 0 6 -5 10 -11 10 -5 0 -7
-4 -4 -10z"/>
<path d="M2360 713 c0 -5 18 -8 40 -8 22 -1 40 3 40 7 0 4 -18 8 -40 8 -22 0
-40 -3 -40 -7z"/>
<path d="M2460 710 c0 -5 5 -10 10 -10 6 0 10 5 10 10 0 6 -4 10 -10 10 -5 0
-10 -4 -10 -10z"/>
<path d="M4568 684 c-41 -21 -166 -59 -348 -103 -365 -89 -749 -149 -1165
-183 -242 -20 -1232 -17 -1660 5 -394 20 -891 54 -985 67 -84 12 -130 12 -80
-1 121 -30 849 -76 1565 -100 690 -22 1376 12 1815 92 419 76 876 187 895 219
10 16 -10 18 -37 4z"/>
<path d="M3240 660 c-13 -8 -12 -10 3 -10 11 0 15 -4 11 -12 -4 -7 -3 -8 4 -4
6 4 9 13 5 21 -6 18 -4 17 -23 5z"/>
<path d="M0 135 l0 -135 2425 0 2425 0 0 135 0 135 -2425 0 -2425 0 0 -135z"/>
</g>
</svg>
